G04*
G04 #@! TF.GenerationSoftware,Altium Limited,Altium Designer,19.1.8 (144)*
G04*
G04 Layer_Color=65535*
%FSLAX25Y25*%
%MOIN*%
G70*
G01*
G75*
%ADD10C,0.00984*%
%ADD11C,0.00787*%
%ADD12C,0.00500*%
%ADD13C,0.01000*%
%ADD14R,0.00803X0.05118*%
%ADD15C,0.00394*%
%ADD16C,0.00197*%
G36*
X111249Y104800D02*
X111281Y104796D01*
X111321Y104793D01*
X111361Y104789D01*
X111409Y104778D01*
X111507Y104756D01*
X111616Y104724D01*
X111671Y104702D01*
X111722Y104676D01*
X111773Y104643D01*
X111824Y104611D01*
X111827Y104607D01*
X111835Y104603D01*
X111849Y104593D01*
X111867Y104574D01*
X111885Y104556D01*
X111911Y104531D01*
X111936Y104501D01*
X111966Y104472D01*
X111995Y104436D01*
X112024Y104392D01*
X112057Y104349D01*
X112086Y104301D01*
X112111Y104247D01*
X112140Y104192D01*
X112162Y104134D01*
X112184Y104068D01*
X111856Y103992D01*
Y103996D01*
X111853Y104003D01*
X111845Y104017D01*
X111838Y104036D01*
X111831Y104057D01*
X111820Y104087D01*
X111791Y104145D01*
X111754Y104210D01*
X111711Y104276D01*
X111656Y104338D01*
X111598Y104392D01*
X111591Y104400D01*
X111569Y104414D01*
X111532Y104432D01*
X111485Y104458D01*
X111423Y104480D01*
X111354Y104501D01*
X111270Y104516D01*
X111179Y104520D01*
X111150D01*
X111132Y104516D01*
X111107D01*
X111077Y104512D01*
X111008Y104501D01*
X110932Y104487D01*
X110852Y104462D01*
X110768Y104425D01*
X110692Y104378D01*
X110688D01*
X110684Y104370D01*
X110659Y104352D01*
X110626Y104323D01*
X110586Y104279D01*
X110539Y104225D01*
X110495Y104163D01*
X110455Y104087D01*
X110419Y104003D01*
Y103999D01*
X110415Y103992D01*
X110411Y103981D01*
X110408Y103963D01*
X110400Y103941D01*
X110393Y103916D01*
X110382Y103854D01*
X110368Y103781D01*
X110353Y103701D01*
X110346Y103613D01*
X110342Y103519D01*
Y103515D01*
Y103504D01*
Y103486D01*
Y103464D01*
X110346Y103439D01*
Y103406D01*
X110349Y103369D01*
X110353Y103329D01*
X110364Y103242D01*
X110382Y103147D01*
X110404Y103053D01*
X110433Y102958D01*
Y102954D01*
X110437Y102947D01*
X110444Y102936D01*
X110451Y102918D01*
X110473Y102874D01*
X110506Y102823D01*
X110546Y102765D01*
X110597Y102703D01*
X110655Y102649D01*
X110724Y102598D01*
X110728D01*
X110735Y102594D01*
X110746Y102587D01*
X110761Y102580D01*
X110779Y102572D01*
X110801Y102561D01*
X110852Y102540D01*
X110917Y102518D01*
X110990Y102499D01*
X111070Y102485D01*
X111154Y102481D01*
X111179D01*
X111201Y102485D01*
X111227D01*
X111252Y102489D01*
X111318Y102503D01*
X111394Y102521D01*
X111470Y102550D01*
X111551Y102591D01*
X111591Y102612D01*
X111627Y102641D01*
X111631Y102645D01*
X111634Y102649D01*
X111645Y102660D01*
X111660Y102671D01*
X111674Y102689D01*
X111693Y102711D01*
X111714Y102733D01*
X111733Y102762D01*
X111754Y102794D01*
X111780Y102831D01*
X111802Y102867D01*
X111824Y102911D01*
X111842Y102958D01*
X111860Y103009D01*
X111878Y103064D01*
X111893Y103122D01*
X112228Y103038D01*
Y103035D01*
X112224Y103020D01*
X112217Y102998D01*
X112206Y102969D01*
X112195Y102936D01*
X112180Y102896D01*
X112162Y102853D01*
X112140Y102805D01*
X112089Y102703D01*
X112024Y102601D01*
X111984Y102550D01*
X111944Y102499D01*
X111900Y102456D01*
X111849Y102412D01*
X111845Y102409D01*
X111838Y102401D01*
X111820Y102394D01*
X111802Y102379D01*
X111773Y102361D01*
X111743Y102343D01*
X111704Y102325D01*
X111663Y102307D01*
X111616Y102285D01*
X111565Y102267D01*
X111511Y102248D01*
X111452Y102230D01*
X111390Y102216D01*
X111325Y102208D01*
X111256Y102201D01*
X111183Y102197D01*
X111143D01*
X111114Y102201D01*
X111081D01*
X111041Y102205D01*
X110997Y102212D01*
X110946Y102219D01*
X110841Y102237D01*
X110732Y102267D01*
X110622Y102307D01*
X110571Y102332D01*
X110521Y102361D01*
X110517Y102365D01*
X110510Y102368D01*
X110495Y102379D01*
X110480Y102394D01*
X110459Y102409D01*
X110433Y102430D01*
X110404Y102456D01*
X110375Y102485D01*
X110346Y102518D01*
X110313Y102550D01*
X110248Y102634D01*
X110186Y102733D01*
X110131Y102842D01*
Y102845D01*
X110124Y102856D01*
X110120Y102874D01*
X110109Y102896D01*
X110102Y102925D01*
X110091Y102962D01*
X110076Y103002D01*
X110065Y103045D01*
X110055Y103093D01*
X110040Y103147D01*
X110022Y103260D01*
X110007Y103388D01*
X110000Y103519D01*
Y103522D01*
Y103537D01*
Y103559D01*
X110004Y103584D01*
Y103621D01*
X110007Y103657D01*
X110011Y103704D01*
X110018Y103752D01*
X110036Y103857D01*
X110062Y103974D01*
X110098Y104090D01*
X110149Y104203D01*
X110153Y104207D01*
X110157Y104218D01*
X110164Y104232D01*
X110178Y104250D01*
X110193Y104276D01*
X110211Y104305D01*
X110258Y104370D01*
X110320Y104443D01*
X110393Y104516D01*
X110477Y104589D01*
X110575Y104651D01*
X110579Y104654D01*
X110590Y104658D01*
X110604Y104665D01*
X110622Y104676D01*
X110652Y104687D01*
X110681Y104698D01*
X110717Y104713D01*
X110757Y104727D01*
X110801Y104742D01*
X110848Y104756D01*
X110950Y104778D01*
X111066Y104796D01*
X111187Y104804D01*
X111223D01*
X111249Y104800D01*
D02*
G37*
G36*
X114062Y104432D02*
X113054D01*
X112919Y103752D01*
X112923Y103755D01*
X112930Y103759D01*
X112941Y103766D01*
X112959Y103777D01*
X112981Y103788D01*
X113007Y103803D01*
X113065Y103832D01*
X113138Y103861D01*
X113218Y103886D01*
X113305Y103904D01*
X113349Y103912D01*
X113429D01*
X113451Y103908D01*
X113480Y103904D01*
X113513Y103901D01*
X113549Y103894D01*
X113589Y103883D01*
X113676Y103857D01*
X113724Y103839D01*
X113771Y103814D01*
X113818Y103788D01*
X113866Y103759D01*
X113909Y103723D01*
X113953Y103682D01*
X113957Y103679D01*
X113964Y103672D01*
X113975Y103661D01*
X113989Y103642D01*
X114008Y103617D01*
X114026Y103592D01*
X114048Y103559D01*
X114069Y103522D01*
X114088Y103482D01*
X114110Y103439D01*
X114128Y103388D01*
X114146Y103337D01*
X114161Y103282D01*
X114171Y103220D01*
X114179Y103158D01*
X114182Y103093D01*
Y103089D01*
Y103078D01*
Y103060D01*
X114179Y103035D01*
X114175Y103006D01*
X114171Y102973D01*
X114164Y102933D01*
X114157Y102893D01*
X114135Y102798D01*
X114099Y102700D01*
X114077Y102649D01*
X114048Y102601D01*
X114018Y102550D01*
X113982Y102503D01*
X113979Y102499D01*
X113971Y102489D01*
X113957Y102474D01*
X113938Y102456D01*
X113913Y102434D01*
X113884Y102405D01*
X113847Y102379D01*
X113807Y102350D01*
X113764Y102321D01*
X113713Y102296D01*
X113658Y102270D01*
X113600Y102245D01*
X113538Y102226D01*
X113469Y102212D01*
X113396Y102201D01*
X113320Y102197D01*
X113287D01*
X113261Y102201D01*
X113232Y102205D01*
X113199Y102208D01*
X113160Y102212D01*
X113119Y102223D01*
X113028Y102245D01*
X112937Y102278D01*
X112890Y102299D01*
X112843Y102325D01*
X112799Y102354D01*
X112755Y102387D01*
X112752Y102390D01*
X112744Y102394D01*
X112737Y102409D01*
X112723Y102423D01*
X112705Y102441D01*
X112686Y102463D01*
X112664Y102492D01*
X112646Y102525D01*
X112624Y102558D01*
X112602Y102598D01*
X112563Y102685D01*
X112530Y102787D01*
X112519Y102842D01*
X112512Y102900D01*
X112836Y102925D01*
Y102922D01*
Y102915D01*
X112839Y102903D01*
X112843Y102885D01*
X112854Y102845D01*
X112868Y102791D01*
X112890Y102736D01*
X112919Y102674D01*
X112956Y102620D01*
X112999Y102569D01*
X113007Y102565D01*
X113021Y102550D01*
X113050Y102532D01*
X113090Y102510D01*
X113134Y102489D01*
X113189Y102470D01*
X113251Y102456D01*
X113320Y102452D01*
X113341D01*
X113356Y102456D01*
X113400Y102460D01*
X113451Y102474D01*
X113513Y102492D01*
X113574Y102521D01*
X113640Y102565D01*
X113669Y102591D01*
X113698Y102620D01*
X113702Y102623D01*
X113706Y102627D01*
X113713Y102638D01*
X113724Y102649D01*
X113749Y102689D01*
X113778Y102740D01*
X113804Y102802D01*
X113829Y102878D01*
X113847Y102969D01*
X113855Y103016D01*
Y103067D01*
Y103071D01*
Y103078D01*
Y103093D01*
X113851Y103111D01*
Y103133D01*
X113847Y103158D01*
X113837Y103217D01*
X113818Y103286D01*
X113793Y103355D01*
X113756Y103420D01*
X113706Y103482D01*
Y103486D01*
X113698Y103490D01*
X113680Y103508D01*
X113647Y103533D01*
X113603Y103562D01*
X113545Y103588D01*
X113480Y103613D01*
X113403Y103631D01*
X113360Y103639D01*
X113291D01*
X113261Y103635D01*
X113225Y103631D01*
X113181Y103621D01*
X113138Y103610D01*
X113090Y103592D01*
X113043Y103570D01*
X113039Y103566D01*
X113025Y103559D01*
X113003Y103541D01*
X112974Y103522D01*
X112945Y103497D01*
X112916Y103464D01*
X112883Y103431D01*
X112857Y103391D01*
X112566Y103431D01*
X112810Y104727D01*
X114062D01*
Y104432D01*
D02*
G37*
D10*
X153492Y160197D02*
G03*
X153492Y160197I-492J0D01*
G01*
X90390Y124677D02*
G03*
X90390Y124677I-492J0D01*
G01*
X52205Y131858D02*
G03*
X52205Y131858I-492J0D01*
G01*
D11*
X90484Y145046D02*
G03*
X90484Y127954I-5984J-8546D01*
G01*
X57913Y101500D02*
G03*
X57913Y101500I-394J0D01*
G01*
X145500Y62748D02*
X165500D01*
Y31252D02*
Y62748D01*
X145500Y31252D02*
X165500D01*
X145500D02*
Y62748D01*
X138000Y162756D02*
Y172244D01*
X158000D01*
Y162756D02*
Y172244D01*
X138000Y162756D02*
X158000D01*
X143500Y115748D02*
X163500D01*
Y84252D02*
Y115748D01*
X143500Y84252D02*
X163500D01*
X143500D02*
Y115748D01*
X110122Y59153D02*
X112878D01*
X110122Y65847D02*
X112878D01*
X145909Y12205D02*
X157091D01*
X145909D02*
Y22795D01*
X157091D01*
Y12205D02*
Y22795D01*
X22031Y93559D02*
X26362D01*
X22031Y88441D02*
X26362D01*
X22031D02*
Y93559D01*
X22532Y74559D02*
X26862D01*
X22532Y69441D02*
X26862D01*
X22532D02*
Y74559D01*
X23531Y56559D02*
X27862D01*
X23531Y51441D02*
X27862D01*
X23531D02*
Y56559D01*
X23031Y37559D02*
X27362D01*
X23031Y32441D02*
X27362D01*
X23031D02*
Y37559D01*
X130138Y26941D02*
X134468D01*
X130138Y32059D02*
X134468D01*
Y26941D02*
Y32059D01*
X23531Y19559D02*
X27862D01*
X23531Y14441D02*
X27862D01*
X23531D02*
Y19559D01*
X90484Y127954D02*
Y145046D01*
X32032Y140850D02*
X35969D01*
X32032Y147150D02*
X35969D01*
X151122Y144846D02*
X153878D01*
X151122Y138154D02*
X153878D01*
X105532Y128150D02*
X109468D01*
X105532Y121850D02*
X109468D01*
X109122Y141654D02*
X111878D01*
X109122Y148346D02*
X111878D01*
X135846Y70622D02*
Y73378D01*
X129154Y70622D02*
Y73378D01*
X15689Y111189D02*
X39311D01*
X15689D02*
Y134811D01*
X39311Y111189D02*
Y134811D01*
X15689D02*
X39311D01*
X109728Y84748D02*
X113272D01*
X109728Y78252D02*
X113272D01*
X43031Y93657D02*
X46968D01*
X43031Y88342D02*
X46968D01*
X107835Y97957D02*
X112165D01*
X107835Y105043D02*
X112165D01*
X43532Y74657D02*
X47469D01*
X43532Y69342D02*
X47469D01*
X44032Y56657D02*
X47969D01*
X44032Y51342D02*
X47969D01*
X60031Y120343D02*
X63968D01*
X60031Y125657D02*
X63968D01*
X44532Y37657D02*
X48469D01*
X44532Y32342D02*
X48469D01*
X110531Y32157D02*
X114469D01*
X110531Y26842D02*
X114469D01*
X45531Y19658D02*
X49468D01*
X45531Y14343D02*
X49468D01*
X103307Y97957D02*
Y105043D01*
Y97957D02*
X116693D01*
Y105043D01*
X103307D02*
X116693D01*
X102126Y97563D02*
Y105437D01*
Y97563D02*
X117874D01*
Y105437D01*
X102126D02*
X117874D01*
X57913Y101500D02*
G03*
X57913Y101500I-394J0D01*
G01*
D02*
G03*
X57913Y101500I-394J0D01*
G01*
X102126Y97563D02*
Y105437D01*
Y97563D02*
X117874D01*
Y105437D01*
X102126D02*
X117874D01*
X90484Y145046D02*
G03*
X90484Y127954I-5984J-8546D01*
G01*
Y145046D01*
D12*
X62008Y107248D02*
X92992D01*
X62008Y15752D02*
X92992D01*
X177000Y134500D02*
X190500D01*
X177000D02*
Y178500D01*
X190500D01*
Y134500D02*
Y178500D01*
Y4500D02*
Y48500D01*
X177000D02*
X190500D01*
X177000Y4500D02*
Y48500D01*
Y4500D02*
X190500D01*
X62008Y107248D02*
X92992D01*
X62008Y15752D02*
X92992D01*
X62008D02*
Y107248D01*
X92992Y15752D02*
Y107248D01*
X62008D02*
X92992D01*
X62008Y15752D02*
X92992D01*
X62008D02*
Y107248D01*
X92992Y15752D02*
Y107248D01*
X177000Y134500D02*
X190500D01*
X177000D02*
Y178500D01*
X190500D01*
Y134500D02*
Y136500D01*
Y176500D02*
Y178500D01*
Y46500D02*
Y48500D01*
Y4500D02*
Y6500D01*
X177000Y48500D02*
X190500D01*
X177000Y4500D02*
Y48500D01*
Y4500D02*
X190500D01*
D13*
X143500Y65000D02*
Y70998D01*
X146499D01*
X147499Y69998D01*
Y67999D01*
X146499Y66999D01*
X143500D01*
X149498Y69998D02*
X150498Y70998D01*
X152497D01*
X153497Y69998D01*
Y68999D01*
X152497Y67999D01*
X151497D01*
X152497D01*
X153497Y66999D01*
Y66000D01*
X152497Y65000D01*
X150498D01*
X149498Y66000D01*
X123000Y167000D02*
Y172998D01*
X125999D01*
X126999Y171998D01*
Y169999D01*
X125999Y168999D01*
X123000D01*
X128998Y167000D02*
X130997D01*
X129998D01*
Y172998D01*
X128998Y171998D01*
X163000Y179498D02*
Y174500D01*
X164000Y173500D01*
X165999D01*
X166999Y174500D01*
Y179498D01*
X172997Y173500D02*
X168998D01*
X172997Y177499D01*
Y178498D01*
X171997Y179498D01*
X169998D01*
X168998Y178498D01*
X144550Y118250D02*
Y124248D01*
X147549D01*
X148549Y123248D01*
Y121249D01*
X147549Y120249D01*
X144550D01*
X154547Y118250D02*
X150548D01*
X154547Y122249D01*
Y123248D01*
X153547Y124248D01*
X151548D01*
X150548Y123248D01*
X105499Y74498D02*
X104499Y75498D01*
X102500D01*
X101500Y74498D01*
Y70500D01*
X102500Y69500D01*
X104499D01*
X105499Y70500D01*
X111497Y69500D02*
X107498D01*
X111497Y73499D01*
Y74498D01*
X110497Y75498D01*
X108498D01*
X107498Y74498D01*
X15700Y104098D02*
Y98100D01*
X19699D01*
X25697Y104098D02*
X23697Y103098D01*
X21698Y101099D01*
Y99100D01*
X22698Y98100D01*
X24697D01*
X25697Y99100D01*
Y100099D01*
X24697Y101099D01*
X21698D01*
X17200Y30098D02*
Y24100D01*
X21199D01*
X27197Y30098D02*
X23198D01*
Y27099D01*
X25197Y28099D01*
X26197D01*
X27197Y27099D01*
Y25100D01*
X26197Y24100D01*
X24198D01*
X23198Y25100D01*
X124200Y42598D02*
Y36600D01*
X128199D01*
X133197D02*
Y42598D01*
X130198Y39599D01*
X134197D01*
X16700Y48098D02*
Y42100D01*
X20699D01*
X22698Y47098D02*
X23698Y48098D01*
X25697D01*
X26697Y47098D01*
Y46099D01*
X25697Y45099D01*
X24697D01*
X25697D01*
X26697Y44099D01*
Y43100D01*
X25697Y42100D01*
X23698D01*
X22698Y43100D01*
X17200Y67098D02*
Y61100D01*
X21199D01*
X27197D02*
X23198D01*
X27197Y65099D01*
Y66098D01*
X26197Y67098D01*
X24198D01*
X23198Y66098D01*
X16200Y85098D02*
Y79100D01*
X20199D01*
X22198D02*
X24197D01*
X23198D01*
Y85098D01*
X22198Y84098D01*
X57730Y117298D02*
Y112300D01*
X58730Y111300D01*
X60729D01*
X61729Y112300D01*
Y117298D01*
X63728Y116298D02*
X64728Y117298D01*
X66727D01*
X67727Y116298D01*
Y115299D01*
X66727Y114299D01*
X65727D01*
X66727D01*
X67727Y113299D01*
Y112300D01*
X66727Y111300D01*
X64728D01*
X63728Y112300D01*
X74650Y156348D02*
Y151350D01*
X75650Y150350D01*
X77649D01*
X78649Y151350D01*
Y156348D01*
X80648Y150350D02*
X82647D01*
X81648D01*
Y156348D01*
X80648Y155348D01*
X9999Y143298D02*
X8999Y144298D01*
X7000D01*
X6000Y143298D01*
Y142299D01*
X7000Y141299D01*
X8999D01*
X9999Y140299D01*
Y139300D01*
X8999Y138300D01*
X7000D01*
X6000Y139300D01*
X11998Y144298D02*
Y138300D01*
X13997Y140299D01*
X15997Y138300D01*
Y144298D01*
X17996Y138300D02*
X19996D01*
X18996D01*
Y144298D01*
X17996Y143298D01*
X105900Y36300D02*
Y42298D01*
X108899D01*
X109899Y41298D01*
Y39299D01*
X108899Y38299D01*
X105900D01*
X107899D02*
X109899Y36300D01*
X111898D02*
X113897D01*
X112898D01*
Y42298D01*
X111898Y41298D01*
X116896D02*
X117896Y42298D01*
X119896D01*
X120895Y41298D01*
Y37300D01*
X119896Y36300D01*
X117896D01*
X116896Y37300D01*
Y41298D01*
X40900Y23800D02*
Y29798D01*
X43899D01*
X44899Y28798D01*
Y26799D01*
X43899Y25799D01*
X40900D01*
X42899D02*
X44899Y23800D01*
X46898Y24800D02*
X47898Y23800D01*
X49897D01*
X50897Y24800D01*
Y28798D01*
X49897Y29798D01*
X47898D01*
X46898Y28798D01*
Y27799D01*
X47898Y26799D01*
X50897D01*
X39950Y41850D02*
Y47848D01*
X42949D01*
X43949Y46848D01*
Y44849D01*
X42949Y43849D01*
X39950D01*
X41949D02*
X43949Y41850D01*
X45948Y46848D02*
X46948Y47848D01*
X48947D01*
X49947Y46848D01*
Y45849D01*
X48947Y44849D01*
X49947Y43849D01*
Y42850D01*
X48947Y41850D01*
X46948D01*
X45948Y42850D01*
Y43849D01*
X46948Y44849D01*
X45948Y45849D01*
Y46848D01*
X46948Y44849D02*
X48947D01*
X55400Y129800D02*
Y135798D01*
X58399D01*
X59399Y134798D01*
Y132799D01*
X58399Y131799D01*
X55400D01*
X57399D02*
X59399Y129800D01*
X61398Y135798D02*
X65397D01*
Y134798D01*
X61398Y130800D01*
Y129800D01*
X39450Y60850D02*
Y66848D01*
X42449D01*
X43449Y65848D01*
Y63849D01*
X42449Y62849D01*
X39450D01*
X41449D02*
X43449Y60850D01*
X49447Y66848D02*
X47447Y65848D01*
X45448Y63849D01*
Y61850D01*
X46448Y60850D01*
X48447D01*
X49447Y61850D01*
Y62849D01*
X48447Y63849D01*
X45448D01*
X38950Y78850D02*
Y84848D01*
X41949D01*
X42949Y83848D01*
Y81849D01*
X41949Y80849D01*
X38950D01*
X40949D02*
X42949Y78850D01*
X48947Y84848D02*
X44948D01*
Y81849D01*
X46947Y82849D01*
X47947D01*
X48947Y81849D01*
Y79850D01*
X47947Y78850D01*
X45948D01*
X44948Y79850D01*
X38400Y97800D02*
Y103798D01*
X41399D01*
X42399Y102798D01*
Y100799D01*
X41399Y99799D01*
X38400D01*
X40399D02*
X42399Y97800D01*
X47397D02*
Y103798D01*
X44398Y100799D01*
X48397D01*
X101750Y90350D02*
Y96348D01*
X104749D01*
X105749Y95348D01*
Y93349D01*
X104749Y92349D01*
X101750D01*
X103749D02*
X105749Y90350D01*
X107748Y95348D02*
X108748Y96348D01*
X110747D01*
X111747Y95348D01*
Y94349D01*
X110747Y93349D01*
X109747D01*
X110747D01*
X111747Y92349D01*
Y91350D01*
X110747Y90350D01*
X108748D01*
X107748Y91350D01*
X97800Y133600D02*
Y139598D01*
X100799D01*
X101799Y138598D01*
Y136599D01*
X100799Y135599D01*
X97800D01*
X99799D02*
X101799Y133600D01*
X107797D02*
X103798D01*
X107797Y137599D01*
Y138598D01*
X106797Y139598D01*
X104798D01*
X103798Y138598D01*
X24300Y152600D02*
Y158598D01*
X27299D01*
X28299Y157598D01*
Y155599D01*
X27299Y154599D01*
X24300D01*
X26299D02*
X28299Y152600D01*
X30298D02*
X32297D01*
X31298D01*
Y158598D01*
X30298Y157598D01*
X138499Y18998D02*
X136499D01*
X137499D01*
Y14000D01*
X136499Y13000D01*
X135500D01*
X134500Y14000D01*
X140498Y13000D02*
X142497D01*
X141498D01*
Y18998D01*
X140498Y17998D01*
X106749Y113848D02*
X105749Y114848D01*
X103750D01*
X102750Y113848D01*
Y109850D01*
X103750Y108850D01*
X105749D01*
X106749Y109850D01*
X112747Y114848D02*
X108748D01*
Y111849D01*
X110747Y112849D01*
X111747D01*
X112747Y111849D01*
Y109850D01*
X111747Y108850D01*
X109748D01*
X108748Y109850D01*
X104599Y158798D02*
X103599Y159798D01*
X101600D01*
X100600Y158798D01*
Y154800D01*
X101600Y153800D01*
X103599D01*
X104599Y154800D01*
X109597Y153800D02*
Y159798D01*
X106598Y156799D01*
X110597D01*
X131699Y90898D02*
X130699Y91898D01*
X128700D01*
X127700Y90898D01*
Y86900D01*
X128700Y85900D01*
X130699D01*
X131699Y86900D01*
X133698Y90898D02*
X134698Y91898D01*
X136697D01*
X137697Y90898D01*
Y89899D01*
X136697Y88899D01*
X135697D01*
X136697D01*
X137697Y87899D01*
Y86900D01*
X136697Y85900D01*
X134698D01*
X133698Y86900D01*
X146599Y155298D02*
X145599Y156298D01*
X143600D01*
X142600Y155298D01*
Y151300D01*
X143600Y150300D01*
X145599D01*
X146599Y151300D01*
X148598Y150300D02*
X150597D01*
X149598D01*
Y156298D01*
X148598Y155298D01*
D14*
X22598Y90941D02*
D03*
X23098Y71941D02*
D03*
X24098Y53941D02*
D03*
X23598Y34941D02*
D03*
X133902Y29559D02*
D03*
X24098Y16941D02*
D03*
D15*
X145500Y62748D02*
X165500D01*
Y31252D02*
Y62748D01*
X145500Y31252D02*
X165500D01*
X145500D02*
Y62748D01*
X138000Y162756D02*
Y172244D01*
X158000D01*
Y162756D02*
Y172244D01*
X138000Y162756D02*
X158000D01*
X143500Y115748D02*
X163500D01*
Y84252D02*
Y115748D01*
X143500Y84252D02*
X163500D01*
X143500D02*
Y115748D01*
X118193Y58957D02*
Y66043D01*
X104807Y58957D02*
Y66043D01*
Y58957D02*
X118193D01*
X104807Y66043D02*
X118193D01*
X146500Y12500D02*
Y22500D01*
Y12500D02*
X156500D01*
Y22500D01*
X146500D02*
X156500D01*
X17701Y87653D02*
Y94346D01*
X30299Y87653D02*
Y94346D01*
X17701D02*
X30299D01*
X17701Y87653D02*
X30299D01*
X18201Y68654D02*
Y75346D01*
X30799Y68654D02*
Y75346D01*
X18201D02*
X30799D01*
X18201Y68654D02*
X30799D01*
X19201Y50654D02*
Y57346D01*
X31799Y50654D02*
Y57346D01*
X19201D02*
X31799D01*
X19201Y50654D02*
X31799D01*
X18701Y31654D02*
Y38346D01*
X31299Y31654D02*
Y38346D01*
X18701D02*
X31299D01*
X18701Y31654D02*
X31299D01*
X138799Y26153D02*
Y32846D01*
X126201Y26153D02*
Y32846D01*
Y26153D02*
X138799D01*
X126201Y32846D02*
X138799D01*
X19201Y13654D02*
Y20346D01*
X31799Y13654D02*
Y20346D01*
X19201D02*
X31799D01*
X19201Y13654D02*
X31799D01*
X40496Y140654D02*
Y147346D01*
X27504Y140654D02*
Y147346D01*
Y140654D02*
X40496D01*
X27504Y147346D02*
X40496D01*
X145807Y137957D02*
Y145043D01*
X159193Y137957D02*
Y145043D01*
X145807D02*
X159193D01*
X145807Y137957D02*
X159193D01*
X101004Y121653D02*
Y128347D01*
X113996Y121653D02*
Y128347D01*
X101004D02*
X113996D01*
X101004Y121653D02*
X113996D01*
X117193Y141457D02*
Y148543D01*
X103807Y141457D02*
Y148543D01*
Y141457D02*
X117193D01*
X103807Y148543D02*
X117193D01*
X128957Y78693D02*
X136043D01*
X128957Y65307D02*
X136043D01*
Y78693D01*
X128957Y65307D02*
Y78693D01*
X15689Y134811D02*
X39311D01*
Y111189D02*
Y134811D01*
X15689Y111189D02*
Y134811D01*
Y111189D02*
X39311D01*
X105004Y78055D02*
Y84945D01*
X117996Y78055D02*
Y84945D01*
X105004D02*
X117996D01*
X105004Y78055D02*
X117996D01*
X38602Y87752D02*
Y94248D01*
X51398Y87752D02*
Y94248D01*
X38602D02*
X51398D01*
X38602Y87752D02*
X51398D01*
X39102Y68752D02*
Y75248D01*
X51898Y68752D02*
Y75248D01*
X39102D02*
X51898D01*
X39102Y68752D02*
X51898D01*
X39602Y50752D02*
Y57248D01*
X52398Y50752D02*
Y57248D01*
X39602D02*
X52398D01*
X39602Y50752D02*
X52398D01*
X68398Y119752D02*
Y126248D01*
X55602Y119752D02*
Y126248D01*
Y119752D02*
X68398D01*
X55602Y126248D02*
X68398D01*
X40102Y31752D02*
Y38248D01*
X52898Y31752D02*
Y38248D01*
X40102D02*
X52898D01*
X40102Y31752D02*
X52898D01*
X106102Y26252D02*
Y32748D01*
X118898Y26252D02*
Y32748D01*
X106102D02*
X118898D01*
X106102Y26252D02*
X118898D01*
X41102Y13752D02*
Y20248D01*
X53898Y13752D02*
Y20248D01*
X41102D02*
X53898D01*
X41102Y13752D02*
X53898D01*
X148000Y165532D02*
Y169468D01*
X146031Y167500D02*
X149969D01*
X109531Y62500D02*
X113469D01*
X111500Y60532D02*
Y64468D01*
X14945Y87063D02*
Y94937D01*
X33055Y87063D02*
Y94937D01*
X14945D02*
X33055D01*
X14945Y87063D02*
X33055D01*
X22031Y91000D02*
X25969D01*
X24000Y89031D02*
Y92968D01*
X15445Y68063D02*
Y75937D01*
X33555Y68063D02*
Y75937D01*
X15445D02*
X33555D01*
X15445Y68063D02*
X33555D01*
X22532Y72000D02*
X26469D01*
X24500Y70031D02*
Y73968D01*
X16445Y50063D02*
Y57937D01*
X34555Y50063D02*
Y57937D01*
X16445D02*
X34555D01*
X16445Y50063D02*
X34555D01*
X23531Y54000D02*
X27468D01*
X25500Y52031D02*
Y55968D01*
X15945Y31063D02*
Y38937D01*
X34055Y31063D02*
Y38937D01*
X15945D02*
X34055D01*
X15945Y31063D02*
X34055D01*
X23031Y35000D02*
X26969D01*
X25000Y33031D02*
Y36968D01*
X141555Y25563D02*
Y33437D01*
X123445Y25563D02*
Y33437D01*
Y25563D02*
X141555D01*
X123445Y33437D02*
X141555D01*
X130532Y29500D02*
X134468D01*
X132500Y27531D02*
Y31468D01*
X16445Y13063D02*
Y20937D01*
X34555Y13063D02*
Y20937D01*
X16445D02*
X34555D01*
X16445Y13063D02*
X34555D01*
X23531Y17000D02*
X27468D01*
X25500Y15032D02*
Y18969D01*
X84500Y134531D02*
Y138469D01*
X82531Y136500D02*
X86468D01*
X32032Y144000D02*
X35969D01*
X34000Y142032D02*
Y145968D01*
X150531Y141500D02*
X154469D01*
X152500Y139532D02*
Y143468D01*
X105532Y125000D02*
X109468D01*
X107500Y123031D02*
Y126969D01*
X108531Y145000D02*
X112469D01*
X110500Y143032D02*
Y146968D01*
X132500Y70031D02*
Y73968D01*
X130532Y72000D02*
X134468D01*
X27500Y121031D02*
Y124969D01*
X25532Y123000D02*
X29469D01*
X109531Y81500D02*
X113469D01*
X111500Y79532D02*
Y83469D01*
X43031Y91000D02*
X46968D01*
X45000Y89031D02*
Y92968D01*
X43532Y72000D02*
X47469D01*
X45500Y70031D02*
Y73968D01*
X44032Y54000D02*
X47969D01*
X46000Y52031D02*
Y55968D01*
X60031Y123000D02*
X63968D01*
X62000Y121031D02*
Y124969D01*
X44532Y35000D02*
X48469D01*
X46500Y33031D02*
Y36968D01*
X110531Y29500D02*
X114469D01*
X112500Y27531D02*
Y31468D01*
X45531Y17000D02*
X49468D01*
X47500Y15032D02*
Y18969D01*
X110000Y99532D02*
Y103469D01*
X108031Y101500D02*
X111969D01*
D16*
X144614Y63634D02*
X166386D01*
Y30366D02*
Y63634D01*
X144614Y30366D02*
X166386D01*
X144614D02*
Y63634D01*
X137606Y162362D02*
Y172638D01*
X158394D01*
Y162362D02*
Y172638D01*
X137606Y162362D02*
X158394D01*
X142614Y116634D02*
X164386D01*
Y83366D02*
Y116634D01*
X142614Y83366D02*
X164386D01*
X142614D02*
Y116634D01*
X122327Y56791D02*
Y68209D01*
X100673Y56791D02*
Y68209D01*
Y56791D02*
X122327D01*
X100673Y68209D02*
X122327D01*
X145122Y11417D02*
Y23583D01*
Y11417D02*
X157878D01*
Y23583D01*
X145122D02*
X157878D01*
X151500Y15531D02*
Y19468D01*
X149531Y17500D02*
X153469D01*
X44630Y138488D02*
Y149512D01*
X23370Y138488D02*
Y149512D01*
Y138488D02*
X44630D01*
X23370Y149512D02*
X44630D01*
X141673Y135791D02*
Y147209D01*
X163327Y135791D02*
Y147209D01*
X141673D02*
X163327D01*
X141673Y135791D02*
X163327D01*
X96870Y119488D02*
Y130512D01*
X118130Y119488D02*
Y130512D01*
X96870D02*
X118130D01*
X96870Y119488D02*
X118130D01*
X121327Y139291D02*
Y150709D01*
X99673Y139291D02*
Y150709D01*
Y139291D02*
X121327D01*
X99673Y150709D02*
X121327D01*
X126791Y82827D02*
X138209D01*
X126791Y61173D02*
X138209D01*
Y82827D01*
X126791Y61173D02*
Y82827D01*
X5059Y110795D02*
Y135205D01*
Y110795D02*
X49941D01*
X5059Y135205D02*
X49941D01*
Y110795D02*
Y135205D01*
X100870Y75791D02*
Y87209D01*
X122130Y75791D02*
Y87209D01*
X100870D02*
X122130D01*
X100870Y75791D02*
X122130D01*
X37520Y87260D02*
Y94740D01*
X52480Y87260D02*
Y94740D01*
X37520D02*
X52480D01*
X37520Y87260D02*
X52480D01*
X38020Y68260D02*
Y75740D01*
X52980Y68260D02*
Y75740D01*
X38020D02*
X52980D01*
X38020Y68260D02*
X52980D01*
X38520Y50260D02*
Y57740D01*
X53480Y50260D02*
Y57740D01*
X38520D02*
X53480D01*
X38520Y50260D02*
X53480D01*
X69480Y119260D02*
Y126740D01*
X54520Y119260D02*
Y126740D01*
Y119260D02*
X69480D01*
X54520Y126740D02*
X69480D01*
X39020Y31260D02*
Y38740D01*
X53980Y31260D02*
Y38740D01*
X39020D02*
X53980D01*
X39020Y31260D02*
X53980D01*
X105020Y25760D02*
Y33240D01*
X119980Y25760D02*
Y33240D01*
X105020D02*
X119980D01*
X105020Y25760D02*
X119980D01*
X40020Y13260D02*
Y20740D01*
X54980Y13260D02*
Y20740D01*
X40020D02*
X54980D01*
X40020Y13260D02*
X54980D01*
X58504Y108232D02*
X96496D01*
X58504Y14768D02*
X96496D01*
Y108232D01*
X58504Y14768D02*
Y108232D01*
M02*
